<svg width="54" height="39" viewBox="0 0 54 39" fill="none" xmlns="http://www.w3.org/2000/svg">
<path d="M20 6.09375V3.65625C20 3.15146 20.4078 2.74219 20.9107 2.74219H53.0893C53.5922 2.74219 54 3.15146 54 3.65625V6.09375C54 6.59854 53.5922 7.00781 53.0893 7.00781H20.9107C20.4078 7.00781 20 6.59854 20 6.09375ZM20.9107 16.7578H53.0893C53.5922 16.7578 54 16.3485 54 15.8438V13.4062C54 12.9015 53.5922 12.4922 53.0893 12.4922H20.9107C20.4078 12.4922 20 12.9015 20 13.4062V15.8438C20 16.3485 20.4078 16.7578 20.9107 16.7578ZM20.9107 36.2578H53.0893C53.5922 36.2578 54 35.8485 54 35.3438V32.9062C54 32.4015 53.5922 31.9922 53.0893 31.9922H20.9107C20.4078 31.9922 20 32.4015 20 32.9062V35.3438C20 35.8485 20.4078 36.2578 20.9107 36.2578ZM20.9107 26.5078H53.0893C53.5922 26.5078 54 26.0985 54 25.5938V23.1562C54 22.6515 53.5922 22.2422 53.0893 22.2422H20.9107C20.4078 22.2422 20 22.6515 20 23.1562V25.5938C20 26.0985 20.4078 26.5078 20.9107 26.5078Z" fill="#C4C4C4"/>
</svg>
