<svg width="30" height="26" viewBox="0 0 30 26" fill="none" xmlns="http://www.w3.org/2000/svg">
<path id="Vector" d="M29.1964 4.30371H0.803571C0.359799 4.30371 0 3.94391 0 3.50014V1.35728C0 0.91351 0.359799 0.553711 0.803571 0.553711H29.1964C29.6402 0.553711 30 0.91351 30 1.35728V3.50014C30 3.94391 29.6402 4.30371 29.1964 4.30371ZM29.1964 15.018H0.803571C0.359799 15.018 0 14.6582 0 14.2144V12.0716C0 11.6278 0.359799 11.268 0.803571 11.268H29.1964C29.6402 11.268 30 11.6278 30 12.0716V14.2144C30 14.6582 29.6402 15.018 29.1964 15.018ZM29.1964 25.7323H0.803571C0.359799 25.7323 0 25.3725 0 24.9287V22.7859C0 22.3421 0.359799 21.9823 0.803571 21.9823H29.1964C29.6402 21.9823 30 22.3421 30 22.7859V24.9287C30 25.3725 29.6402 25.7323 29.1964 25.7323Z" fill="white"/>
</svg>
