<svg width="37" height="34" viewBox="0 0 37 34" fill="none" xmlns="http://www.w3.org/2000/svg">
<path d="M33.125 9.125H31.2898C31.7258 8.27422 32 7.33203 32 6.3125C32 2.90234 29.2227 0.125 25.8125 0.125C22.8875 0.125 20.9961 1.62266 18.5703 4.92734C16.1445 1.62266 14.2531 0.125 11.3281 0.125C7.91797 0.125 5.14062 2.90234 5.14062 6.3125C5.14062 7.33203 5.40781 8.27422 5.85078 9.125H3.875C2.01172 9.125 0.5 10.6367 0.5 12.5V21.5C0.5 22.1187 1.00625 22.625 1.625 22.625H2.75V30.1766C2.75 32.2156 4.40937 33.875 6.44844 33.875H30.5516C32.5906 33.875 34.25 32.2156 34.25 30.1766V22.625H35.375C35.9938 22.625 36.5 22.1187 36.5 21.5V12.5C36.5 10.6367 34.9883 9.125 33.125 9.125ZM16.8125 30.5H6.44844C6.27266 30.5 6.125 30.3594 6.125 30.1766V22.625H14V19.25H3.875V12.5H16.8125V30.5ZM11.3211 9.125C9.76719 9.125 8.50859 7.86641 8.50859 6.3125C8.50859 4.75859 9.76719 3.5 11.3211 3.5C12.868 3.5 13.9578 4.03437 17.2344 8.91406L17.375 9.125H11.3211ZM19.8992 8.91406C23.1758 4.03437 24.2656 3.5 25.8125 3.5C27.3664 3.5 28.625 4.75859 28.625 6.3125C28.625 7.86641 27.3664 9.125 25.8125 9.125H19.7586L19.8992 8.91406ZM33.125 19.25H23V22.625H30.875V30.1766C30.875 30.3523 30.7344 30.5 30.5516 30.5H20.1875V12.5H33.125V19.25Z" fill="#E37538"/>
</svg>
