<svg width="36" height="35" viewBox="0 0 36 35" fill="none" xmlns="http://www.w3.org/2000/svg">
<path d="M15.8132 6.56869V9.90431L17.8436 11.9344C17.3788 9.55571 18.0829 7.12919 19.792 5.42037C21.1797 4.03281 23.0187 3.28776 24.9192 3.28776H25.0012L21.0772 7.19754L22.1095 13.3903L28.3031 14.4224L32.2203 10.5058C32.2408 12.4402 31.4957 14.2994 30.0874 15.7075C29.4516 16.3431 28.7065 16.8284 27.9134 17.1839C28.0365 17.2932 28.1801 17.3821 28.2963 17.4983L30.395 19.5967C31.1128 19.1661 31.7965 18.6466 32.4049 18.0314C35.0095 15.4272 36.076 11.5858 35.1872 8.01094C34.9822 7.17703 34.3395 6.52085 33.5192 6.28845C32.6852 6.05605 31.7964 6.29528 31.1949 6.90362L27.182 10.9091L24.967 10.54L24.5979 8.32536L28.6039 4.31989C29.2123 3.71155 29.4448 2.82297 29.2123 1.9959C28.9867 1.16883 28.3236 0.526316 27.4896 0.321258C23.8527 -0.580998 20.1133 0.457963 17.4676 3.09638C16.7703 3.79357 16.2029 4.57963 15.738 5.41353L15.8132 5.46822V6.56869ZM7.74645 31.0321C6.8714 31.907 5.33324 31.907 4.4582 31.0321C4.02068 30.5947 3.77457 30.0068 3.77457 29.3917C3.77457 28.7697 4.01384 28.1887 4.4582 27.7512L13.6461 18.5646L11.3287 16.2474L2.14071 25.4272C1.08108 26.4867 0.5 27.8947 0.5 29.3917C0.5 30.8886 1.08108 32.2966 2.14071 33.3561C3.20033 34.4156 4.6086 34.9966 6.10574 34.9966C7.60289 34.9966 9.01116 34.4156 10.0708 33.3561L16.9686 26.4593C16.3055 25.3794 15.9295 24.149 15.8953 22.8982L7.74645 31.0321ZM34.7566 27.0472L26.7513 19.0431C25.1721 17.4641 22.8136 17.1565 20.9131 18.093L13.6256 10.8066V6.56186L4.87521 0L0.5 4.37457L7.06282 13.1237H11.3081L18.5956 20.4101C17.6659 22.3103 17.9667 24.6685 19.5459 26.2474L27.5511 34.2515C28.5492 35.2495 30.1626 35.2495 31.1538 34.2515L34.7566 30.6493C35.7478 29.6514 35.7478 28.0383 34.7566 27.0472Z" fill="#E37538"/>
</svg>
